<?xml version="1.0" encoding="utf-8"?>
<!-- Generator: Adobe Illustrator 24.1.1, SVG Export Plug-In . SVG Version: 6.00 Build 0)  -->
<svg version="1.1" id="Layer_1" xmlns="http://www.w3.org/2000/svg" xmlns:xlink="http://www.w3.org/1999/xlink" x="0px" y="0px"
	 viewBox="0 0 512 512" style="enable-background:new 0 0 512 512;" xml:space="preserve">
<g>
	<path d="M209.43,384.2c3.07,0,5.4-0.1,6.93-0.3l4.63-2.75c1.52-1.6,2.3-3.92,2.3-7l-0.1-14.27c-0.07-9.08-0.1-16.3-0.1-21.6
		l-4.82,0.85c-3.85,0.6-7.75,0.85-11.65,0.73c-4.9-0.1-9.78-0.58-14.6-1.48c-5.1-0.95-9.9-3.1-14.02-6.3
		c-4.3-3.25-7.53-7.75-9.2-12.88l-2.1-4.83c-1.78-3.83-4-7.4-6.6-10.67c-2.38-3.38-5.5-6.13-9.15-8l-1.45-1.03l-2.73-2.55l-1.9-2.92
		l1.02-2.4l6.1-0.95l4.2,0.65c2.82,0.52,6.27,2.23,10.4,5c4.07,2.83,7.5,6.42,10.15,10.9c3.22,5.75,7.1,10.13,11.65,13.13
		c4.02,2.83,8.8,4.4,13.73,4.5c4.6,0,8.6-0.32,11.95-1.02c3.27-0.67,6.45-1.75,9.45-3.17c1.25-9.35,4.65-16.55,10.25-21.58
		c-7.25-0.73-14.43-2-21.5-3.8c-6.88-1.9-13.5-4.65-19.7-8.18c-6.5-3.52-12.25-8.3-16.9-14.05c-4.45-5.6-8.1-12.93-11-22
		c-3.02-10.23-4.45-20.83-4.27-31.48c0-16.9,5.52-31.3,16.55-43.18c-5.18-12.72-4.68-27,1.47-42.77c4.08-1.3,10.08-0.35,18.05,2.8
		c7.95,3.15,13.82,5.85,17.5,8.1c3.73,2.23,6.65,4.1,8.9,5.63c13.13-3.63,26.67-5.47,40.27-5.43c13.83,0,27.27,1.8,40.27,5.45
		l7.93-5.05c5.47-3.32,11.92-6.43,19.3-9.2c7.42-2.83,13.1-3.6,17-2.3c6.3,15.77,6.88,30.05,1.67,42.75
		c11.05,11.9,16.58,26.27,16.58,43.2c0,11.88-1.42,22.4-4.3,31.57c-2.85,9.15-6.58,16.47-11.1,22.03c-4.73,5.67-10.5,10.4-17,13.95
		c-6.2,3.53-12.83,6.28-19.7,8.18c-7.07,1.8-14.25,3.07-21.52,3.77c7.27,6.27,10.92,16.2,10.92,29.77v50.1
		c0,2.38,0.35,4.3,1.05,5.77l3.35,3.05l4.1,1.02l5.1,0.23h-50.32h-57H209.43z"/>
	<path d="M256,460.8c113.13,0,204.8-91.7,204.8-204.8S369.13,51.2,256,51.2C142.9,51.2,51.2,142.9,51.2,256S142.9,460.8,256,460.8z
		 M256,512C114.63,512,0,397.38,0,256C0,114.6,114.63,0,256,0c141.4,0,256,114.6,256,256C512,397.38,397.4,512,256,512z"/>
</g>
</svg>
